#Comment line ignore any data following # character 
#Hierarchical Translation and Rotation (.htr) file 
[Header]	
#Header keywords are followed by a single value 
FileType HTR		#Single word string
DataType HTRS		#Translation followed by rotation and scale data
FileVersion 1		#integer
NumSegments 84		#integer
NumFrames 2		#integer
DataFrameRate 30		#integer, data frame rate in this file
EulerRotationOrder ZYX
CalibrationUnits mm
RotationUnits Degrees
GlobalAxisofGravity Y
BoneLengthAxis Y
ScaleFactor 1.00
[SegmentNames&Hierarchy]
#CHILD	PARENT
MASTER GLOBAL
root MASTER
chest root
L_mid_tent01 root
R_mid_tent01 root
spine01 root
Bip01_Neck chest
L_humerus chest
R_humerus chest
weapon_bone chest
Bip01_Head Bip01_Neck
eye_left_bone Bip01_Head
eye_right_bone Bip01_Head
L_forearm L_humerus
L_front_hand L_forearm
L_weapon_bone L_forearm
L_front_hand01_01 L_front_hand
L_front_hand02_01 L_front_hand
L_front_hand03_01 L_front_hand
L_front_hand01_02 L_front_hand01_01
L_front_hand02_02 L_front_hand02_01
L_front_hand03_02 L_front_hand03_01
R_forearm R_humerus
R_front_hand R_forearm
R_weapon_bone R_forearm
R_front_hand01_01 R_front_hand
R_front_hand02_01 R_front_hand
R_front_hand03_01 R_front_hand
R_front_hand01_02 R_front_hand01_01
R_front_hand02_02 R_front_hand02_01
R_front_hand03_02 R_front_hand03_01
null_rope01_connect L_mid_tent01
Rope1_Seg01 null_rope01_connect
Rope1_Seg02 Rope1_Seg01
Rope1_Seg03 Rope1_Seg02
Rope1_Seg04 Rope1_Seg03
Rope1_Seg05 Rope1_Seg04
Rope1_Seg06 Rope1_Seg05
Rope1_Seg07 Rope1_Seg06
Rope1_Seg09 Rope1_Seg07
L_mid_hand01 Rope1_Seg09
L_mid_hand02 Rope1_Seg09
L_mid_hand03 Rope1_Seg09
null_rope02_connect R_mid_tent01
Rope2_Seg01 null_rope02_connect
Rope2_Seg02 Rope2_Seg01
Rope2_Seg03 Rope2_Seg02
Rope2_Seg04 Rope2_Seg03
Rope2_Seg05 Rope2_Seg04
Rope2_Seg06 Rope2_Seg05
Rope2_Seg07 Rope2_Seg06
Rope2_Seg09 Rope2_Seg07
R_mid_hand01 Rope2_Seg09
R_mid_hand02 Rope2_Seg09
R_mid_hand03 Rope2_Seg09
spine02 spine01
spine03 spine02
pelvis spine03
null_rope03_connect pelvis
null_rope04_connect pelvis
Rope3_Seg01 null_rope03_connect
Rope3_Seg02 Rope3_Seg01
Rope3_Seg03 Rope3_Seg02
Rope3_Seg04 Rope3_Seg03
Rope3_Seg05 Rope3_Seg04
Rope3_Seg06 Rope3_Seg05
Rope3_Seg07 Rope3_Seg06
Rope3_Seg08 Rope3_Seg07
Rope3_Seg09 Rope3_Seg08
R_rear_hand01 Rope3_Seg09
R_rear_hand02 Rope3_Seg09
R_rear_hand03 Rope3_Seg09
Rope4_Seg01 null_rope04_connect
Rope4_Seg02 Rope4_Seg01
Rope4_Seg03 Rope4_Seg02
Rope4_Seg04 Rope4_Seg03
Rope4_Seg05 Rope4_Seg04
Rope4_Seg06 Rope4_Seg05
Rope4_Seg07 Rope4_Seg06
Rope4_Seg08 Rope4_Seg07
Rope4_Seg09 Rope4_Seg08
L_rear_hand01 Rope4_Seg09
L_rear_hand02 Rope4_Seg09
L_rear_hand03 Rope4_Seg09
[BasePosition]
#SegmentName Tx, Ty, Tz, Rx, Ry, Rz, BoneLength
MASTER 0.000000 0.000000 0.000000 -90.000000 0.000000 0.000000 10.000000 
root 0.000000 0.000000 0.000000 0.000000 0.000000 0.000000 10.000000 
chest 0.000000 0.000000 0.000000 0.000000 0.000000 0.000000 10.000000 
L_mid_tent01 0.000000 0.000000 0.000000 0.000000 0.000000 0.000000 10.000000 
R_mid_tent01 0.000000 0.000000 0.000000 0.000000 0.000000 0.000000 10.000000 
spine01 0.000000 0.000000 0.000000 0.000000 0.000000 0.000000 10.000000 
Bip01_Neck 0.000000 0.000000 0.000000 0.000000 0.000000 0.000000 10.000000 
L_humerus 0.000000 0.000000 0.000000 0.000000 0.000000 0.000000 10.000000 
R_humerus 0.000000 0.000000 0.000000 0.000000 0.000000 0.000000 10.000000 
weapon_bone 0.000000 0.000000 0.000000 0.000000 0.000000 0.000000 10.000000 
Bip01_Head 0.000000 0.000000 0.000000 0.000000 0.000000 0.000000 10.000000 
eye_left_bone 0.000000 0.000000 0.000000 0.000000 0.000000 0.000000 10.000000 
eye_right_bone 0.000000 0.000000 0.000000 0.000000 0.000000 0.000000 10.000000 
L_forearm 0.000000 0.000000 0.000000 0.000000 0.000000 0.000000 10.000000 
L_front_hand 0.000000 0.000000 0.000000 0.000000 0.000000 0.000000 10.000000 
L_weapon_bone 0.000000 0.000000 0.000000 0.000000 0.000000 0.000000 10.000000 
L_front_hand01_01 0.000000 0.000000 0.000000 0.000000 0.000000 0.000000 10.000000 
L_front_hand02_01 0.000000 0.000000 0.000000 0.000000 0.000000 0.000000 10.000000 
L_front_hand03_01 0.000000 0.000000 0.000000 0.000000 0.000000 0.000000 10.000000 
L_front_hand01_02 0.000000 0.000000 0.000000 0.000000 0.000000 0.000000 10.000000 
L_front_hand02_02 0.000000 0.000000 0.000000 0.000000 0.000000 0.000000 10.000000 
L_front_hand03_02 0.000000 0.000000 0.000000 0.000000 0.000000 0.000000 10.000000 
R_forearm 0.000000 0.000000 0.000000 0.000000 0.000000 0.000000 10.000000 
R_front_hand 0.000000 0.000000 0.000000 0.000000 0.000000 0.000000 10.000000 
R_weapon_bone 0.000000 0.000000 0.000000 0.000000 0.000000 0.000000 10.000000 
R_front_hand01_01 0.000000 0.000000 0.000000 0.000000 0.000000 0.000000 10.000000 
R_front_hand02_01 0.000000 0.000000 0.000000 0.000000 0.000000 0.000000 10.000000 
R_front_hand03_01 0.000000 0.000000 0.000000 0.000000 0.000000 0.000000 10.000000 
R_front_hand01_02 0.000000 0.000000 0.000000 0.000000 0.000000 0.000000 10.000000 
R_front_hand02_02 0.000000 0.000000 0.000000 0.000000 0.000000 0.000000 10.000000 
R_front_hand03_02 0.000000 0.000000 0.000000 0.000000 0.000000 0.000000 10.000000 
null_rope01_connect 0.000000 0.000000 0.000000 0.000000 0.000000 0.000000 10.000000 
Rope1_Seg01 0.000000 0.000000 0.000000 0.000000 0.000000 0.000000 10.000000 
Rope1_Seg02 0.000000 0.000000 0.000000 0.000000 0.000000 0.000000 10.000000 
Rope1_Seg03 0.000000 0.000000 0.000000 0.000000 0.000000 0.000000 10.000000 
Rope1_Seg04 0.000000 0.000000 0.000000 0.000000 0.000000 0.000000 10.000000 
Rope1_Seg05 0.000000 0.000000 0.000000 0.000000 0.000000 0.000000 10.000000 
Rope1_Seg06 0.000000 0.000000 0.000000 0.000000 0.000000 0.000000 10.000000 
Rope1_Seg07 0.000000 0.000000 0.000000 0.000000 0.000000 0.000000 10.000000 
Rope1_Seg09 0.000000 0.000000 0.000000 0.000000 0.000000 0.000000 10.000000 
L_mid_hand01 0.000000 0.000000 0.000000 0.000000 0.000000 0.000000 10.000000 
L_mid_hand02 0.000000 0.000000 0.000000 0.000000 0.000000 0.000000 10.000000 
L_mid_hand03 0.000000 0.000000 0.000000 0.000000 0.000000 0.000000 10.000000 
null_rope02_connect 0.000000 0.000000 0.000000 0.000000 0.000000 0.000000 10.000000 
Rope2_Seg01 0.000000 0.000000 0.000000 0.000000 0.000000 0.000000 10.000000 
Rope2_Seg02 0.000000 0.000000 0.000000 0.000000 0.000000 0.000000 10.000000 
Rope2_Seg03 0.000000 0.000000 0.000000 0.000000 0.000000 0.000000 10.000000 
Rope2_Seg04 0.000000 0.000000 0.000000 0.000000 0.000000 0.000000 10.000000 
Rope2_Seg05 0.000000 0.000000 0.000000 0.000000 0.000000 0.000000 10.000000 
Rope2_Seg06 0.000000 0.000000 0.000000 0.000000 0.000000 0.000000 10.000000 
Rope2_Seg07 0.000000 0.000000 0.000000 0.000000 0.000000 0.000000 10.000000 
Rope2_Seg09 0.000000 0.000000 0.000000 0.000000 0.000000 0.000000 10.000000 
R_mid_hand01 0.000000 0.000000 0.000000 0.000000 0.000000 0.000000 10.000000 
R_mid_hand02 0.000000 0.000000 0.000000 0.000000 0.000000 0.000000 10.000000 
R_mid_hand03 0.000000 0.000000 0.000000 0.000000 0.000000 0.000000 10.000000 
spine02 0.000000 0.000000 0.000000 0.000000 0.000000 0.000000 10.000000 
spine03 0.000000 0.000000 0.000000 0.000000 0.000000 0.000000 10.000000 
pelvis 0.000000 0.000000 0.000000 0.000000 0.000000 0.000000 10.000000 
null_rope03_connect 0.000000 0.000000 0.000000 0.000000 0.000000 0.000000 10.000000 
null_rope04_connect 0.000000 0.000000 0.000000 0.000000 0.000000 0.000000 10.000000 
Rope3_Seg01 0.000000 0.000000 0.000000 0.000000 0.000000 0.000000 10.000000 
Rope3_Seg02 0.000000 0.000000 0.000000 0.000000 0.000000 0.000000 10.000000 
Rope3_Seg03 0.000000 0.000000 0.000000 0.000000 0.000000 0.000000 10.000000 
Rope3_Seg04 0.000000 0.000000 0.000000 0.000000 0.000000 0.000000 10.000000 
Rope3_Seg05 0.000000 0.000000 0.000000 0.000000 0.000000 0.000000 10.000000 
Rope3_Seg06 0.000000 0.000000 0.000000 0.000000 0.000000 0.000000 10.000000 
Rope3_Seg07 0.000000 0.000000 0.000000 0.000000 0.000000 0.000000 10.000000 
Rope3_Seg08 0.000000 0.000000 0.000000 0.000000 0.000000 0.000000 10.000000 
Rope3_Seg09 0.000000 0.000000 0.000000 0.000000 0.000000 0.000000 10.000000 
R_rear_hand01 0.000000 0.000000 0.000000 0.000000 0.000000 0.000000 10.000000 
R_rear_hand02 0.000000 0.000000 0.000000 0.000000 0.000000 0.000000 10.000000 
R_rear_hand03 0.000000 0.000000 0.000000 0.000000 0.000000 0.000000 10.000000 
Rope4_Seg01 0.000000 0.000000 0.000000 0.000000 0.000000 0.000000 10.000000 
Rope4_Seg02 0.000000 0.000000 0.000000 0.000000 0.000000 0.000000 10.000000 
Rope4_Seg03 0.000000 0.000000 0.000000 0.000000 0.000000 0.000000 10.000000 
Rope4_Seg04 0.000000 0.000000 0.000000 0.000000 0.000000 0.000000 10.000000 
Rope4_Seg05 0.000000 0.000000 0.000000 0.000000 0.000000 0.000000 10.000000 
Rope4_Seg06 0.000000 0.000000 0.000000 0.000000 0.000000 0.000000 10.000000 
Rope4_Seg07 0.000000 0.000000 0.000000 0.000000 0.000000 0.000000 10.000000 
Rope4_Seg08 0.000000 0.000000 0.000000 0.000000 0.000000 0.000000 10.000000 
Rope4_Seg09 0.000000 0.000000 0.000000 0.000000 0.000000 0.000000 10.000000 
L_rear_hand01 0.000000 0.000000 0.000000 0.000000 0.000000 0.000000 10.000000 
L_rear_hand02 0.000000 0.000000 0.000000 0.000000 0.000000 0.000000 10.000000 
L_rear_hand03 0.000000 0.000000 0.000000 0.000000 0.000000 0.000000 10.000000 
#Beginning of Data. Separated by tabs
#Fr	Tx	Ty	Tz	Rx	Ry	Rz	SF
[MASTER]
15 0.000003 -0.000074 -1706.222046 0.001660 0.001660 0.001660 1706.222046
16 0.000003 -0.000071 -1911.512817 0.001660 0.001660 0.001660 1911.512817
[root]
15 -16.502298 -20.599384 1465.197632 -96.533890 -15.487558 -91.469177 1465.435425
16 -16.502298 -19.014441 1464.183228 -97.171638 -18.342735 -91.039307 1464.399658
[chest]
15 -84.512650 -34.090519 0.000000 -28.744606 -3.718550 161.016708 91.129311
16 -84.512650 -34.090519 0.000000 -21.283249 -5.214009 160.980072 91.129311
[L_mid_tent01]
15 27.299273 22.178537 -249.918549 -4.620693 56.430817 76.513542 252.381500
16 27.299269 22.178553 -249.918564 -0.786303 49.206570 79.146172 252.381516
[R_mid_tent01]
15 23.228794 24.509907 226.238495 161.041397 -58.614777 88.025398 228.744751
16 23.228794 24.509907 226.238495 160.469467 -54.782566 88.414757 228.744751
[spine01]
15 -0.361383 -0.195265 0.000000 0.002062 0.001122 32.879829 0.410763
16 -0.361383 -0.195265 0.000000 0.002062 0.001122 32.879829 0.410763
[Bip01_Neck]
15 165.484543 71.581718 0.000119 176.643677 -1.657967 43.431915 180.302734
16 165.484543 71.581718 0.000119 176.643677 -1.657967 43.431911 180.302734
[L_humerus]
15 -13.983130 -135.272980 -120.471481 91.357231 75.560272 -162.625748 181.680161
16 -13.983130 -135.272980 -120.471481 55.207264 70.462059 171.456512 181.680161
[R_humerus]
15 -13.983309 -135.273102 125.287651 -168.115280 -35.087456 -102.101196 184.909012
16 -13.983309 -135.273102 125.287651 -168.805573 -22.085073 -103.532448 184.909012
[weapon_bone]
15 235.964890 -300.705902 0.000000 0.000000 -89.951546 -128.212341 382.234833
16 235.964890 -300.705902 0.000000 0.000000 -89.951546 -128.212341 382.234833
[Bip01_Head]
15 213.327774 186.036163 7.637081 32.900219 6.122330 -43.833691 283.154572
16 213.327316 186.039185 7.598128 33.138477 6.143470 -43.832378 283.155182
[eye_left_bone]
15 -24.626970 125.451866 -64.772606 0.000000 -90.000000 -99.840431 143.318359
16 -24.626970 125.451866 -64.772606 0.000000 -90.000000 -99.840431 143.318359
[eye_right_bone]
15 -24.626970 125.451866 64.327362 0.000000 -89.965736 80.156380 143.117676
16 -24.626970 125.451866 64.327362 0.000000 -89.965736 80.156380 143.117676
[L_forearm]
15 322.776093 0.000000 -0.000119 0.000173 -0.002341 -98.465912 322.776093
16 322.776093 0.000000 -0.000119 0.000165 -0.002341 -98.086090 322.776093
[L_front_hand]
15 241.149185 -0.042021 -3.300071 -178.545334 -1.740715 -31.301508 241.171753
16 241.149185 -0.042021 -3.300071 -178.556168 -1.749636 -30.943592 241.171753
[L_weapon_bone]
15 156.183838 0.000000 0.000000 0.000014 0.000007 0.000001 156.183838
16 156.183838 0.000000 0.000000 0.000014 0.000007 0.000001 156.183838
[L_front_hand01_01]
15 86.095154 20.947098 -0.655860 -0.366594 -0.477154 75.385574 88.609184
16 86.095154 20.947098 -0.655860 -0.366594 -0.477154 75.385574 88.609184
[L_front_hand02_01]
15 86.935165 -11.437475 24.513514 154.399796 -59.883820 -61.369572 91.046425
16 86.935165 -11.437475 24.513514 154.399796 -59.883835 -61.369587 91.046425
[L_front_hand03_01]
15 86.637497 -14.123976 -20.424902 -153.913849 58.118130 -62.702866 90.126129
16 86.637497 -14.123976 -20.424902 -153.913849 58.118122 -62.702866 90.126129
[L_front_hand01_02]
15 71.020905 -0.000179 0.000030 0.000332 -0.002324 -106.274635 71.020905
16 71.020905 -0.000179 0.000030 0.000333 -0.002323 -106.308624 71.020905
[L_front_hand02_02]
15 71.020927 -0.000119 0.000060 0.000332 -0.002324 -106.274635 71.020927
16 71.020927 -0.000119 0.000060 0.000333 -0.002323 -106.308624 71.020927
[L_front_hand03_02]
15 71.020905 -0.000060 0.000060 0.000332 -0.002324 -106.274635 71.020905
16 71.020905 -0.000060 0.000060 0.000333 -0.002323 -106.308624 71.020905
[R_forearm]
15 322.776428 -0.000060 0.000030 0.212505 0.020405 -96.597946 322.776428
16 322.776428 -0.000060 0.000030 0.212566 0.019771 -96.255898 322.776428
[R_front_hand]
15 238.847015 -0.006795 2.210259 -1.780532 -10.817467 -30.897890 238.857239
16 238.847015 -0.006795 2.210259 -1.859831 -10.804397 -30.473722 238.857239
[R_weapon_bone]
15 155.664093 0.002503 -0.000030 0.003487 0.001180 -90.988930 155.664078
16 155.664093 0.002503 -0.000030 0.003487 0.001180 -90.988930 155.664078
[R_front_hand01_01]
15 87.624611 14.231146 22.918642 -154.633484 -59.950607 61.746033 91.683487
16 87.624611 14.231146 22.918642 -154.633484 -59.950607 61.746033 91.683487
[R_front_hand02_01]
15 89.356956 14.367283 -19.491137 154.602661 58.302864 63.744389 92.579636
16 89.356956 14.367283 -19.491137 154.602676 58.302856 63.744400 92.579636
[R_front_hand03_01]
15 87.286232 -22.307278 -0.143439 0.162155 -0.423168 -75.767921 90.091743
16 87.286232 -22.307278 -0.143439 0.162155 -0.423168 -75.767921 90.091743
[R_front_hand01_02]
15 71.020905 0.000060 0.000119 0.002323 -0.000334 106.381706 71.020905
16 71.020905 0.000060 0.000119 0.002323 -0.000334 106.381706 71.020905
[R_front_hand02_02]
15 71.020844 -0.000030 -0.000119 0.002323 -0.000334 106.381706 71.020836
16 71.020844 -0.000030 -0.000119 0.002323 -0.000334 106.381706 71.020836
[R_front_hand03_02]
15 71.020905 0.000000 0.000030 0.002323 -0.000334 106.381706 71.020905
16 71.020905 0.000000 0.000030 0.002323 -0.000334 106.381706 71.020905
[null_rope01_connect]
15 328.732483 0.000000 -0.000238 -156.400070 -26.384441 -177.438309 328.732483
16 328.732483 0.000000 -0.000238 -152.121033 -33.232086 -178.959595 328.732483
[Rope1_Seg01]
15 0.000024 -0.000051 0.000097 -3.617492 8.124493 -164.679077 0.000112
16 0.000026 -0.000051 0.000104 -2.228198 9.737902 -163.847534 0.000119
[Rope1_Seg02]
15 139.999863 -0.000179 0.000000 -16.450686 -25.793211 -26.888464 139.999863
16 139.999863 -0.000179 0.000000 -10.864187 -12.288183 -28.639465 139.999863
[Rope1_Seg03]
15 139.999924 0.000060 -0.000060 -6.854598 -13.969016 -30.229336 139.999924
16 139.999924 0.000060 -0.000060 -1.857852 -9.307981 -33.935032 139.999924
[Rope1_Seg04]
15 139.999924 -0.000060 -0.000119 -1.116998 -2.811554 -13.209953 139.999924
16 139.999924 -0.000060 -0.000119 0.743261 4.790056 -18.562187 139.999924
[Rope1_Seg05]
15 139.999832 0.000119 -0.000060 -0.105171 1.234771 -4.857887 139.999832
16 139.999832 0.000119 -0.000060 0.102852 4.805015 -6.799374 139.999832
[Rope1_Seg06]
15 139.999954 0.000119 -0.000060 -0.017072 1.628894 -2.709352 139.999954
16 139.999954 0.000119 -0.000060 0.702067 1.344709 -3.566724 139.999954
[Rope1_Seg07]
15 139.999985 0.000060 0.000000 0.111431 0.424491 -2.416564 139.999985
16 139.999985 0.000060 0.000000 0.515962 0.788102 -2.180991 139.999985
[Rope1_Seg09]
15 121.602913 0.000119 -0.000089 -89.793175 -1.359789 0.847147 121.602913
16 121.602913 0.000119 -0.000089 -89.793175 -1.359789 0.847147 121.602913
[L_mid_hand01]
15 103.859421 1.038730 8.195221 130.544373 -67.584534 -38.866943 104.187431
16 103.859421 1.038730 8.195221 130.544342 -67.584518 -38.866936 104.187431
[L_mid_hand02]
15 105.572853 -4.139662 -10.864139 -168.923172 43.409309 -73.498894 106.211075
16 105.572853 -4.139662 -10.864139 -168.923172 43.409309 -73.498894 106.211075
[L_mid_hand03]
15 104.641464 17.579376 -3.913581 -6.012627 17.808174 74.893669 106.179977
16 104.641464 17.579376 -3.913581 -6.012626 17.808172 74.893661 106.179977
[null_rope02_connect]
15 328.732849 0.000179 -0.000119 -139.679947 36.402424 13.080113 328.732849
16 328.732849 0.000179 -0.000119 -134.894699 40.097748 16.245604 328.732849
[Rope2_Seg01]
15 -0.000016 0.000103 0.000000 55.079967 51.375095 -10.941523 0.000104
16 -0.000011 0.000103 0.000000 52.822323 49.455219 -13.663352 0.000104
[Rope2_Seg02]
15 139.999741 -0.000060 -0.000119 -0.330236 6.412372 -3.623552 139.999756
16 139.999741 -0.000060 -0.000119 -0.542201 6.671275 -4.395591 139.999756
[Rope2_Seg03]
15 140.000107 0.000030 0.000000 -0.560565 10.446630 -5.927371 140.000107
16 140.000107 0.000030 0.000000 -0.741402 10.610135 -6.975586 140.000107
[Rope2_Seg04]
15 139.999802 0.000000 -0.000060 -0.771917 15.620033 -9.635121 139.999802
16 139.999802 0.000000 -0.000060 -0.827485 15.479015 -9.359681 139.999802
[Rope2_Seg05]
15 139.999985 -0.000060 0.000119 -1.065689 23.461567 -13.626252 139.999985
16 139.999985 -0.000060 0.000119 0.891562 19.439838 -14.274925 139.999985
[Rope2_Seg06]
15 139.999893 -0.000030 -0.000119 1.943800 22.648149 -12.322217 139.999893
16 139.999893 -0.000030 -0.000119 19.580753 20.643703 -20.467882 139.999893
[Rope2_Seg07]
15 139.999893 0.000060 -0.000060 39.134830 10.670493 -6.885880 139.999893
16 139.999893 0.000060 -0.000060 51.687973 6.654841 -14.644632 139.999893
[Rope2_Seg09]
15 121.338966 0.000089 -0.000060 33.793236 -1.359788 -0.847141 121.338966
16 121.338966 0.000089 -0.000060 33.793236 -1.359788 -0.847141 121.338966
[R_mid_hand01]
15 104.680779 11.144459 -10.335981 -16.212063 45.237247 70.462852 105.778534
16 104.680779 11.144459 -10.335981 -16.212063 45.237247 70.462852 105.778534
[R_mid_hand02]
15 104.070427 2.443552 8.231699 49.067371 -67.749794 39.286461 104.424065
16 104.070427 2.443552 8.231699 49.067371 -67.749794 39.286461 104.424065
[R_mid_hand03]
15 106.028137 -11.221827 -5.996406 -177.101105 15.551026 -76.585571 106.788818
16 106.028137 -11.221827 -5.996406 -177.101105 15.551026 -76.585571 106.788818
[spine02]
15 129.756927 0.001550 0.000119 -1.199499 -4.082408 9.301875 129.756927
16 129.756927 0.001550 0.000119 -1.197284 -4.065378 9.279223 129.756927
[spine03]
15 78.613968 0.083608 -4.898967 0.922042 4.547800 2.647016 78.766502
16 78.613968 0.083547 -4.898968 0.923260 4.513045 2.656656 78.766502
[pelvis]
15 169.435242 0.051022 0.000000 0.028925 -0.039642 -13.907590 169.435257
16 169.435242 0.051022 0.000000 0.028253 -0.054675 -13.880189 169.435257
[null_rope03_connect]
15 -1.257226 -2.466202 137.391083 -153.810928 -82.276703 -131.603226 137.418976
16 -1.257226 -2.466202 137.391083 -154.716202 -81.804611 -127.846962 137.418976
[null_rope04_connect]
15 -1.259640 -2.480268 -137.844437 -153.810928 -82.276703 -131.603226 137.872513
16 -1.259640 -2.480268 -137.844437 -154.716202 -81.804611 -127.846962 137.872513
[Rope3_Seg01]
15 -0.000009 0.000012 -0.000007 10.795468 -12.614102 -53.026009 0.000017
16 -0.000010 0.000013 0.000003 8.304491 -15.880488 -49.472534 0.000017
[Rope3_Seg02]
15 139.999924 -0.000119 0.000060 -1.598257 -4.401291 1.830232 139.999924
16 139.999924 -0.000119 0.000060 -1.534521 -4.909677 0.498153 139.999924
[Rope3_Seg03]
15 139.999924 -0.000119 0.000119 -1.592792 -4.708530 1.814686 139.999924
16 139.999924 -0.000119 0.000119 -1.346659 -5.035552 0.377724 139.999924
[Rope3_Seg04]
15 139.999924 0.000119 0.000000 -1.407804 -2.583575 3.462403 139.999924
16 139.999924 0.000119 0.000000 -0.917588 -2.937563 1.118581 139.999924
[Rope3_Seg05]
15 139.999924 -0.000238 0.000060 -1.515767 -4.445224 1.981117 139.999924
16 139.999924 -0.000238 0.000060 -0.921082 -4.850341 0.164421 139.999924
[Rope3_Seg06]
15 139.999893 -0.000119 -0.000060 -0.891677 -11.998800 -4.092874 139.999893
16 139.999893 -0.000119 -0.000060 -0.536763 -10.780903 -2.560912 139.999893
[Rope3_Seg07]
15 139.999771 0.000060 -0.000119 1.196582 -14.159304 -6.679442 139.999771
16 139.999771 0.000060 -0.000119 0.884542 -12.271091 -3.536156 139.999771
[Rope3_Seg08]
15 139.999985 -0.000060 0.000000 1.535028 -7.931187 -2.945976 139.999985
16 139.999985 -0.000060 0.000000 1.321938 -7.264467 -1.747515 139.999985
[Rope3_Seg09]
15 90.185997 -0.000179 -0.000060 89.793228 -1.359877 -0.847183 90.185997
16 90.185997 -0.000179 -0.000060 89.793228 -1.359877 -0.847183 90.185997
[R_rear_hand01]
15 103.366196 -6.073594 -10.757982 -177.714203 24.565960 -73.910950 104.101845
16 103.366196 -6.073594 -10.757982 -177.714203 24.565958 -73.910942 104.101845
[R_rear_hand02]
15 100.509819 12.039542 -7.992327 -12.874829 36.868488 72.167213 101.543350
16 100.509819 12.039542 -7.992327 -12.874827 36.868488 72.167213 101.543350
[R_rear_hand03]
15 101.539970 5.215704 5.435467 71.484573 -71.816597 21.513800 101.819031
16 101.539970 5.215704 5.435467 71.484581 -71.816643 21.513824 101.819031
[Rope4_Seg01]
15 0.000000 0.000000 0.000000 -91.907623 -31.069202 -120.056206 0.000000
16 0.000000 0.000000 0.000000 -93.008667 -31.505812 -117.927277 0.000000
[Rope4_Seg02]
15 139.999985 0.000060 0.000119 0.268923 10.624761 7.253556 139.999985
16 139.999985 0.000060 0.000119 -0.597717 8.092495 12.773030 139.999985
[Rope4_Seg03]
15 139.999924 0.000000 -0.000238 -0.378638 19.671537 14.597833 139.999924
16 139.999924 0.000000 -0.000238 -5.789304 13.469527 22.950260 139.999924
[Rope4_Seg04]
15 139.999985 0.000000 0.000119 -16.881615 24.759846 21.376398 139.999985
16 139.999985 0.000000 0.000119 -19.080503 10.337039 23.502213 139.999985
[Rope4_Seg05]
15 139.999802 -0.000060 -0.000119 -117.385712 17.209076 25.402433 139.999802
16 139.999802 -0.000060 -0.000119 -33.262901 -0.439855 22.064480 139.999802
[Rope4_Seg06]
15 139.999924 0.000000 0.000060 -12.255307 -12.702594 1.225867 139.999924
16 139.999924 0.000000 0.000060 -28.096676 -12.982293 17.703657 139.999924
[Rope4_Seg07]
15 139.999802 0.000000 0.000000 -2.290427 -5.720564 -0.810055 139.999802
16 139.999802 0.000000 0.000000 -8.740782 -10.393173 5.515965 139.999802
[Rope4_Seg08]
15 139.999924 0.000000 0.000119 -2.423222 -3.008078 -0.548309 139.999924
16 139.999924 0.000000 0.000119 -4.569512 -5.436635 1.967982 139.999924
[Rope4_Seg09]
15 90.185791 0.000060 0.000060 -135.617828 2.228885 0.850567 90.185791
16 90.185791 0.000060 0.000060 -135.617828 2.228885 0.850567 90.185791
[L_rear_hand01]
15 101.696655 -8.392275 -7.654577 -12.874829 -36.868488 107.832764 102.329041
16 101.696655 -8.392275 -7.654577 -12.874827 -36.868488 107.832764 102.329041
[L_rear_hand02]
15 102.726799 -1.568258 5.773216 71.484573 71.816597 158.486160 102.900848
16 102.726799 -1.568258 5.773216 71.484581 71.816643 158.486160 102.900848
[L_rear_hand03]
15 104.552910 9.721220 -10.420293 -177.714203 -24.565960 -106.089035 105.519653
16 104.552910 9.721220 -10.420293 -177.714203 -24.565958 -106.089043 105.519653
